<?xml version="1.0" standalone="no"?>
<!DOCTYPE svg PUBLIC "-//W3C//DTD SVG 20010904//EN"
 "http://www.w3.org/TR/2001/REC-SVG-20010904/DTD/svg10.dtd">
<svg version="1.0" xmlns="http://www.w3.org/2000/svg"
 width="311.000000pt" height="427.000000pt" viewBox="0 0 311.000000 427.000000"
 preserveAspectRatio="xMidYMid meet">
<metadata>
Created by potrace 1.16, written by Peter Selinger 2001-2019
</metadata>
<g transform="translate(0.000000,427.000000) scale(0.100000,-0.100000)"
fill="#000000" stroke="none">
<path d="M1530 3589 c-7 -12 -38 -71 -69 -133 -32 -61 -102 -192 -156 -291
-53 -99 -115 -214 -138 -255 -22 -41 -105 -194 -186 -340 -130 -238 -146 -271
-149 -321 -3 -37 0 -59 8 -64 7 -4 60 -11 119 -16 295 -23 348 -28 366 -36 14
-5 -9 -10 -70 -14 -228 -14 -421 -33 -426 -41 -6 -10 -1 -90 7 -97 4 -4 8 65
5 83 -1 5 5 6 13 3 9 -4 18 -2 21 3 4 6 35 10 70 10 l63 0 -8 -36 -8 -36 31 6
c18 3 60 8 95 12 l62 7 1 -309 c0 -170 2 -317 4 -326 2 -10 -3 -21 -10 -25
-10 -6 28 -83 146 -298 88 -159 173 -318 190 -352 17 -35 36 -63 43 -63 13 0
47 60 421 745 45 83 134 245 199 362 113 204 117 213 114 265 l-3 53 -50 7
c-168 23 -300 35 -414 37 -79 2 -32 16 77 23 59 4 170 13 247 20 l140 13 -2
61 c-1 46 -8 71 -30 110 -16 27 -100 177 -185 334 -86 157 -179 326 -208 375
-28 50 -59 107 -68 127 -9 21 -20 38 -25 38 -8 0 1 -18 78 -161 30 -53 54
-107 55 -120 1 -13 1 -159 0 -324 -2 -267 -3 -295 -15 -255 -26 89 -44 137
-40 105 2 -16 9 -46 14 -65 19 -67 41 -155 41 -167 0 -11 -79 -31 -259 -67
-71 -14 -80 -14 -190 9 -179 38 -225 48 -232 52 -6 3 77 343 171 698 17 66 47
181 66 255 19 74 39 146 43 160 5 14 14 44 20 68 7 23 17 42 22 42 6 0 9 -6 6
-14 -3 -8 1 -17 10 -20 12 -5 13 -2 8 11 -11 24 -15 140 -5 124 6 -11 9 -11
14 0 3 8 4 3 1 -11 -3 -14 -2 -19 1 -12 5 10 9 9 20 -5 9 -11 7 -1 -4 27 -21
51 -45 62 -62 29z m85 -1507 c5 -3 25 -7 44 -9 19 -2 41 -9 47 -14 7 -6 50
-13 96 -15 46 -3 87 -9 93 -15 9 -9 -11 -96 -106 -449 -16 -63 -44 -167 -61
-230 -17 -63 -34 -131 -39 -150 -4 -19 -20 -78 -34 -130 -15 -52 -41 -151 -59
-218 -17 -68 -35 -123 -41 -123 -5 1 -13 14 -18 29 -8 29 -95 363 -157 602
-21 80 -59 226 -85 325 -60 230 -85 328 -85 336 0 4 12 11 28 17 40 15 203 44
210 38 3 -3 11 -1 18 5 8 6 20 9 29 6 8 -4 17 -2 21 4 6 10 78 3 99 -9z"/>
</g>
</svg>
